<svg xmlns="http://www.w3.org/2000/svg" version="1.1" xmlns:xlink="http://www.w3.org/1999/xlink" xmlns:svgjs="http://svgjs.dev/svgjs" id="Pattern1821SvgRootPreview" width="100%" height="100%"><defs><pattern x="0" y="0" width="1" height="1" patternUnits="userSpaceOnUse" id="Pattern1821Layer1"><g id="PatternRootContent1"><g id="Pattern1821Layer1background"><rect width="1" height="1" id="Pattern1821Background1" class="color_1 fill_color_1" fill="#c8cce8"></rect></g></g></pattern><pattern x="0" y="0" width="112" height="194" patternUnits="userSpaceOnUse" id="Pattern1821Layer2" patternTransform="matrix(0.8,0,0,0.8,0,0)"><g id="PatternRootContent2"><g id="Pattern1821Layer2Element3"><use xlink:href="#Pattern1821Element3" x="42.81590270996094" y="-109.49994277954102" transform="translate(112, -48.5) scale(1) translate(-112, 48.5) rotate(45, 112, -48.5)"></use><use xlink:href="#Pattern1821Element3" x="-69.18409729003906" y="-109.49994277954102" transform="translate(0, -48.5) scale(1) translate(0, 48.5) rotate(45, 0, -48.5)"></use><use xlink:href="#Pattern1821Element3" x="-13.184097290039062" y="-12.499942779541016" transform="translate(56, 48.5) scale(1) translate(-56, -48.5) rotate(45, 56, 48.5)"></use><use xlink:href="#Pattern1821Element3" x="-125.18409729003906" y="-12.499942779541016" transform="translate(-56, 48.5) scale(1) translate(56, -48.5) rotate(45, -56, 48.5)"></use><use xlink:href="#Pattern1821Element3" x="98.81590270996094" y="-12.499942779541016" transform="translate(168, 48.5) scale(1) translate(-168, -48.5) rotate(45, 168, 48.5)"></use><use xlink:href="#Pattern1821Element3" x="42.81590270996094" y="84.50005722045898" transform="translate(112, 145.5) scale(1) translate(-112, -145.5) rotate(45, 112, 145.5)"></use><use xlink:href="#Pattern1821Element3" x="-69.18409729003906" y="84.50005722045898" transform="translate(0, 145.5) scale(1) translate(0, -145.5) rotate(45, 0, 145.5)"></use><use xlink:href="#Pattern1821Element3" x="-13.184097290039062" y="181.50005722045898" transform="translate(56, 242.5) scale(1) translate(-56, -242.5) rotate(45, 56, 242.5)"></use><use xlink:href="#Pattern1821Element3" x="-13.184097290039062" y="181.50005722045898" transform="translate(56, 242.5) scale(1) translate(-56, -242.5) rotate(45, 56, 242.5)"></use></g></g></pattern><symbol id="Pattern1821Element3"><g class="color_4 fill_color_4" fill="#dbe9ff"><g><path d="M67.184,69.33972930908203l0,28l4,0L71.184,69.33972930908203l-4,0Zm-8,-4l0,28l4,0L63.184,65.33972930908203l-4,0Zm20,8l-4,0l0,28l4,0L79.184,73.33972930908203Z"></path><path d="M94.433,109.60768127441406l-24.249,-14l-2,3.464L92.433,113.07177734375l2,-3.464Zm7.464,-4.928l-24.249,-14l-2,3.464L99.897,108.1435775756836l2,-3.464Zm-16.928,13.321l2,-3.464l-24.249,-14l-2,3.464L84.968,117.99998474121094Z"></path><path d="M45.935,113.07178497314453l24.249,-14l-2,-3.464L43.935,109.60768127441406l2,3.464Zm0.536,8.928l24.249,-14l-2,-3.464L44.471,118.535888671875l2,3.464Zm-3.072,-21.321l2,3.464l24.249,-14l-2,-3.464L43.399,100.67948150634766Z"></path></g><g><path d="M60.962,63.437950134277344l-24.249,14l2,3.464L62.962,66.90205383300781l-2,-3.464Zm-0.536,-8.928l-24.249,14l2,3.464L62.426,57.973846435546875l-2,-3.464Zm3.072,21.321l-2,-3.464l-24.249,14l2,3.464L63.498,75.83025360107422Z"></path><path d="M39.713,107.17024993896484l0,-28l-4,0L35.713,107.17024993896484l4,0Zm8,4l0,-28l-4,0L43.713,111.17015838623047l4,0Zm-20,-8l4,0l0,-28l-4,0L27.713,103.16947174072266Z"></path><path d="M12.464,66.90180206298828l24.249,14l2,-3.464L14.464,63.43770217895508l-2,3.464Zm-7.464,4.928l24.249,14l2,-3.464L7,68.3659896850586l-2,3.464Zm16.929,-13.321l-2,3.464l24.249,14l2,-3.464L21.928,58.5094108581543Z"></path></g><g><path d="M62.962,55.09815979003906l-24.249,-14l-2,3.464L60.962,58.56226348876953l2,-3.464Zm7.464,-4.928l-24.249,-14l-2,3.464L68.426,53.634056091308594l2,-3.464Zm-16.928,13.321l2,-3.464l-24.249,-14l-2,3.464L53.497,63.4904670715332Z"></path><path d="M14.464,58.56251525878906l24.249,-14l-2,-3.464L12.464,55.09841537475586l2,3.464Zm0.536,8.928l24.249,-14l-2,-3.464L13,64.02652740478516l2,3.464Zm-3.072,-21.321l2,3.464l24.249,-14l-2,-3.464L11.929,46.16943359375Z"></path><path d="M35.713,14.829957008361816l0,28l4,0L39.713,14.829957008361816l-4,0Zm-8,-4l0,28l4,0L31.713,10.83004379272461l-4,0Zm20.001,8l-4,0l0,28l4,0L47.713,18.82986831665039Z"></path></g><g><path d="M71.184,52.660152435302734l0,-28l-4,0L67.184,52.660152435302734l4,0Zm8,4l0,-28l-4,0L75.184,56.660152435302734l4,0Zm-20,-8l4,0l0,-28l-4,0L59.184,48.660152435302734Z"></path><path d="M43.935,12.392203330993652l24.249,14l2,-3.464L45.935,8.92810344696045l-2,3.464Zm-7.464,4.928l24.249,14l2,-3.464L38.471,13.856307029724121l-2,3.464Zm16.928,-13.321l-2,3.464l24.249,14l2,-3.464L53.4,3.9999001026153564Z"></path><path d="M92.433,8.928099632263184l-24.249,14l2,3.464L94.433,12.392199516296387l-2,-3.464Zm-0.536,-8.928l-24.249,14l2,3.464L93.897,3.463996171951294l-2,-3.464Zm3.072,21.321l-2,-3.464l-24.249,14l2,3.464L94.969,21.320402145385742Z"></path></g><g><path d="M77.406,58.56193923950195l24.249,-14l-2,-3.464L75.406,55.097835540771484l2,3.464Zm0.536,8.928l24.249,-14l-2,-3.464L75.942,64.02603912353516l2,3.464Zm-3.072,-21.321l2,3.464l24.249,-14l-2,-3.464L74.871,46.16963195800781Z"></path><path d="M98.655,14.829631805419922l0,28l4,0L102.655,14.829632759094238l-4,0Zm-8,-4l0,28l4,0L94.655,10.829723358154297l-4,0Zm20,8l-4,0l0,28l4,0L110.655,18.830411911010742Z"></path><path d="M125.904,55.098087310791016l-24.249,-14l-2,3.464L123.904,58.56218719482422l2,-3.464Zm7.464,-4.928l-24.249,-14l-2,3.464L131.368,53.63389587402344l2,-3.464Zm-16.929,13.321l2,-3.464l-24.249,-14l-2,3.464L116.44,63.490478515625Z"></path></g><g><path d="M75.407,66.90172576904297l24.248,14l2,-3.464L77.407,63.437625885009766l-2,3.464Zm-7.464,4.928l24.249,14l2,-3.464L69.943,68.36582946777344l-2,3.464Zm16.928,-13.321l-2,3.464l24.249,14l2,-3.464L84.871,58.509422302246094Z"></path><path d="M123.904,63.437374114990234l-24.249,14l2,3.464L125.904,66.90147399902344l-2,-3.464Zm-0.536,-8.928l-24.249,14l2,3.464L125.368,57.97336196899414l-2,-3.464Zm3.072,21.321l-2,-3.464l-24.249,14l2,3.464L126.44,75.83045196533203Z"></path><path d="M102.655,107.16992950439453l0,-28l-4,0L98.655,107.16992950439453l4,0Zm8,4l0,-28l-4,0L106.655,111.16983795166016l4,0Zm-20.001,-8l4,0l0,-28l-4,0L90.655,103.17001342773438Z"></path></g></g></symbol></defs><rect width="100%" height="100%" id="Pattern1821RctLayer1" fill="url(&quot;#Pattern1821Layer1&quot;)"></rect><rect width="100%" height="100%" id="Pattern1821RctLayer2" fill="url(&quot;#Pattern1821Layer2&quot;)"></rect></svg>